<?xml version="1.0" standalone="no"?><!DOCTYPE svg PUBLIC "-//W3C//DTD SVG 1.1//EN" "http://www.w3.org/Graphics/SVG/1.1/DTD/svg11.dtd"><svg t="1615782016977" class="icon" viewBox="0 0 1024 1024" version="1.1" xmlns="http://www.w3.org/2000/svg" p-id="2770" xmlns:xlink="http://www.w3.org/1999/xlink" width="200" height="200"><defs><style type="text/css"></style></defs><path d="M447.631636 480.564535L42.631584 292.559248a32.82632 32.82632 0 0 0-12.789475-2.557895 29.415793 29.415793 0 0 0-29.842109 28.989477v429.726371a56.700007 56.700007 0 0 0 30.694741 50.30527l405.852684 220.405292a29.842109 29.842109 0 0 0 29.842109 0 28.136846 28.136846 0 0 0 14.921054-24.726319V533.001384a57.978955 57.978955 0 0 0-33.678952-52.436849zM361.08952 639.580345l-240.868452-118.089489v-57.978954l240.868452 115.957909zM991.184338 217.52766a25.152635 25.152635 0 0 0-14.921055-32.82632L535.4527 4.796053a61.815797 61.815797 0 0 0-47.747374 0L46.894743 184.70134a26.431582 26.431582 0 0 0-14.921055 14.494738 25.152635 25.152635 0 0 0 14.921055 32.82632l440.810583 179.905287a66.078956 66.078956 0 0 0 47.747374 0L976.263283 232.022398a26.431582 26.431582 0 0 0 14.921055-14.494738zM1020.173815 306.201355a30.694741 30.694741 0 0 0-39.647373-13.642107l-405.000052 188.431603a57.552639 57.552639 0 0 0-33.678952 52.010533v461.273744a29.415793 29.415793 0 0 0 3.836843 14.494738 30.694741 30.694741 0 0 0 42.631584 10.657897l405.852684-219.978976a57.978955 57.978955 0 0 0 28.989477-50.731586V318.99083a25.578951 25.578951 0 0 0-2.984211-12.789475z m-49.026322 288.189511v85.263169h-37.515794s-2.984211 11.510528-4.689474 17.052633l-5.115791 13.642107 26.431583 34.9579L902.936958 810.106683l-26.431582-34.531583-10.657896 6.821053a98.052644 98.052644 0 0 1-13.642107 6.394738v49.026322h-67.357904v-48.600006a79.721063 79.721063 0 0 1-13.642107-6.394738l-10.23158-6.821053-26.431582 34.531583-48.173691-61.389482 26.431583-34.957899a127.894753 127.894753 0 0 1-5.115791-13.642107 127.894753 127.894753 0 0 1-4.689474-17.052634h-37.515794v-85.263169h37.515794a182.036865 182.036865 0 0 1 10.657896-33.678951l-26.431582-34.531584L733.689568 469.054008l26.431582 34.531583a107.431593 107.431593 0 0 1 25.578951-14.068423v-52.863165H852.631689v49.026323a110.415804 110.415804 0 0 1 26.005266 14.068422l26.431582-34.531583 46.468427 60.963166-26.431582 34.531583a182.036865 182.036865 0 0 1 10.657896 33.678952z" p-id="2771"></path><path d="M895.263273 628.922449v-20.46316a46.468427 46.468427 0 0 0-2.131579-7.24737 81.852642 81.852642 0 0 0-71.621062-63.094745 81.00001 81.00001 0 0 0-71.194746 63.094745V610.590868a69.063167 69.063167 0 0 0 0 8.100001v2.131579a47.321059 47.321059 0 0 0 0 8.100001 4.689474 4.689474 0 0 1 0 2.131579V649.811926a28.989477 28.989477 0 0 0 0 5.968421v4.263159a95.068433 95.068433 0 0 0 54.994744 73.752641 68.210535 68.210535 0 0 0 20.036844 3.410527 63.947377 63.947377 0 0 0 20.036845-3.410527 94.215802 94.215802 0 0 0 54.994744-73.752641v-4.263159-5.968421a11.936844 11.936844 0 0 1 0-3.836843v-18.757897z" p-id="2772"></path></svg>