<?xml version="1.0" standalone="no"?><!DOCTYPE svg PUBLIC "-//W3C//DTD SVG 1.1//EN" "http://www.w3.org/Graphics/SVG/1.1/DTD/svg11.dtd"><svg t="1615782259314" class="icon" viewBox="0 0 1025 1024" version="1.1" xmlns="http://www.w3.org/2000/svg" p-id="6605" xmlns:xlink="http://www.w3.org/1999/xlink" width="200.1953125" height="200"><defs><style type="text/css"></style></defs><path d="M58.027671 221.971188a315.729749 315.729749 0 0 1 218.441647-160.963483A30.782932 30.782932 0 0 0 264.711022 0.574576 377.065783 377.065783 0 0 0 3.79176 192.790913a30.78088 30.78088 0 1 0 54.215391 29.159754zM1022.084842 192.790913A377.065783 377.065783 0 0 0 761.16558 0.574576a30.782932 30.782932 0 1 0-11.758297 60.433129 315.709229 315.709229 0 0 1 218.462168 160.963483 30.78088 30.78088 0 0 0 54.215391-29.159754zM955.94699 531.606323c0-249.715021-202.435589-452.171131-452.171131-452.171131S51.625248 281.891302 51.625248 531.606323a451.104061 451.104061 0 0 0 155.320322 341.175277L129.398272 950.4315a43.095284 43.095284 0 0 0 60.946143 60.946143l79.804563-79.804562a42.6623 42.6623 0 0 0 6.710232-8.803332 452.561022 452.561022 0 0 0 448.887837 2.852362 42.785424 42.785424 0 0 0 4.924941 5.95097l79.804562 79.804562a43.095284 43.095284 0 0 0 60.946143-60.946143l-74.530772-74.530771a451.145102 451.145102 0 0 0 159.055069-344.294406zM456.229659 738.700085l-5.643161-189.651263-121.215107 3.878391 207.729901-241.917199 17.709266 195.643275 123.369769 3.960474z" p-id="6606"></path></svg>